<svg xmlns="http://www.w3.org/2000/svg" width="800" height="600" viewBox="0 0 800 600">
  <rect width="800" height="600" fill="#ffffff"/>
  <path d="M150 200 L150 420 L250 420 L250 380 L300 380 L300 420 L400 420 L400 200 Z" fill="none" stroke="#111" stroke-width="2"/>
  <rect x="240" y="180" width="60" height="30" fill="none" stroke="#111" stroke-width="2"/>
  <path d="M240 180 L260 160 L280 160 L300 180" fill="none" stroke="#111" stroke-width="2"/>
  <path d="M245 200 Q250 205 255 200" fill="none" stroke="#111" stroke-width="2"/>
  <path d="M285 200 Q290 205 295 200" fill="none" stroke="#111" stroke-width="2"/>
  <rect x="260" y="160" width="20" height="60" fill="none" stroke="#111" stroke-width="2"/>
  <rect x="262" y="100" width="16" height="70" fill="none" stroke="#111" stroke-width="2"/>
  <line x1="262" y1="105" x2="278" y2="105" stroke="#111" stroke-width="1"/>
  <line x1="262" y1="115" x2="278" y2="115" stroke="#111" stroke-width="1"/>
  <line x1="262" y1="125" x2="278" y2="125" stroke="#111" stroke-width="1"/>
  <rect x="220" y="140" width="120" height="20" fill="none" stroke="#111" stroke-width="2"/>
  <line x1="225" y1="145" x2="335" y2="155" stroke="#111" stroke-width="0.5"/>
  <line x1="230" y1="150" x2="340" y2="160" stroke="#111" stroke-width="0.5"/>
  <rect x="200" y="120" width="160" height="20" fill="none" stroke="#111" stroke-width="2"/>
  <polygon points="265,90 275,80 285,90 285,100 275,110 265,100" fill="none" stroke="#111" stroke-width="2"/>
  <line x1="200" y1="310" x2="120" y2="310" stroke="#111" stroke-width="1"/>
  <text x="50" y="315" font-family="Helvetica, Arial, sans-serif" font-size="12">10</text>
  <line x1="270" y1="155" x2="200" y2="130" stroke="#111" stroke-width="1"/>
  <text x="170" y="125" font-family="Helvetica, Arial, sans-serif" font-size="12">12</text>
  <line x1="260" y1="175" x2="180" y2="155" stroke="#111" stroke-width="1"/>
  <text x="150" y="150" font-family="Helvetica, Arial, sans-serif" font-size="12">14</text>
  <line x1="250" y1="200" x2="180" y2="220" stroke="#111" stroke-width="1"/>
  <text x="150" y="225" font-family="Helvetica, Arial, sans-serif" font-size="12">16</text>
  <line x1="270" y1="160" x2="320" y2="140" stroke="#111" stroke-width="1"/>
  <text x="325" y="135" font-family="Helvetica, Arial, sans-serif" font-size="12">18</text>
  <line x1="270" y1="105" x2="340" y2="85" stroke="#111" stroke-width="1"/>
  <text x="345" y="80" font-family="Helvetica, Arial, sans-serif" font-size="12">20</text>
  <line x1="270" y1="130" x2="350" y2="115" stroke="#111" stroke-width="1"/>
  <text x="355" y="110" font-family="Helvetica, Arial, sans-serif" font-size="12">22</text>
  <line x1="280" y1="95" x2="360" y2="75" stroke="#111" stroke-width="1"/>
  <text x="365" y="70" font-family="Helvetica, Arial, sans-serif" font-size="12">24</text>
  <line x1="270" y1="95" x2="220" y2="70" stroke="#111" stroke-width="1"/>
  <text x="190" y="65" font-family="Helvetica, Arial, sans-serif" font-size="12">26</text>
  <text x="400" y="580" font-family="Helvetica, Arial, sans-serif" font-size="14" text-anchor="middle">FIG. 1</text>
</svg>